<svg id="Capa_1" data-name="Capa 1" xmlns="http://www.w3.org/2000/svg" viewBox="0 0 72.21 93.29"><defs><style>.cls-1{fill:#d9d9d9;}</style></defs><title>Tacho de basura</title><path class="cls-1" d="M591.49,358.9v46.9A14.48,14.48,0,0,1,577,420.28H548.18a14.48,14.48,0,0,1-14.49-14.48V358.9a3.6,3.6,0,0,0-3.59-3.6h0a3.6,3.6,0,0,0-3.6,3.6v46.56a22,22,0,0,0,22,22h28.16a22,22,0,0,0,22-22V358.9a3.6,3.6,0,0,0-3.6-3.6h0A3.6,3.6,0,0,0,591.49,358.9Z" transform="translate(-526.5 -334.18)"/><rect class="cls-1" x="21.76" y="28.38" width="7.04" height="43.12" rx="3.52"/><path class="cls-1" d="M576.93,337.7h0a3.52,3.52,0,0,0-3.52-3.52H551.85a3.53,3.53,0,0,0-3.52,3.52h0a3.52,3.52,0,0,1-3.52,3.52H530.07a3.52,3.52,0,0,0-3.52,3.52h0a3.51,3.51,0,0,0,3.52,3.52H595.2a3.52,3.52,0,0,0,3.52-3.52h0a3.53,3.53,0,0,0-3.52-3.52H580.45A3.52,3.52,0,0,1,576.93,337.7Z" transform="translate(-526.5 -334.18)"/><rect class="cls-1" x="43.47" y="28.38" width="7.04" height="43.12" rx="3.52"/></svg>