<svg id="Capa_1" data-name="Capa 1" xmlns="http://www.w3.org/2000/svg" viewBox="0 0 67.69 69.27"><defs><style>.cls-1{fill:#e94335;}.cls-2{fill:#34a753;}.cls-3{fill:#4284f3;}.cls-4{fill:#fabb05;}</style></defs><title>Google</title><path class="cls-1" d="M420.31,290.57a28.28,28.28,0,0,1,1.6-2.91,34.42,34.42,0,0,1,11.46-11.37,34.06,34.06,0,0,1,10.22-4.14,34.5,34.5,0,0,1,9.39-.84,34.12,34.12,0,0,1,18.51,6.46c.9.64,1.76,1.33,2.6,2,.11.1.11.14,0,.24l-9.83,9.83c-.11.11-.16.1-.27,0a19.84,19.84,0,0,0-8.29-4,20.06,20.06,0,0,0-6.23-.38,19.84,19.84,0,0,0-6.84,1.87,20.31,20.31,0,0,0-8.81,8,19.9,19.9,0,0,0-1.82,3.95l-.07.15-.18-.13q-4.69-3.58-9.38-7.18Z" transform="translate(-416.76 -271.27)"/><path class="cls-2" d="M431.94,312.33a22.41,22.41,0,0,0,1.13,2.73,20.49,20.49,0,0,0,19,11.3,23.61,23.61,0,0,0,6.41-1,17.83,17.83,0,0,0,4.4-2l.06,0,.56.44L474,331.9a9.37,9.37,0,0,1-.87.8c-.7.6-1.42,1.17-2.17,1.7s-1.62,1.11-2.47,1.61-1.88,1-2.86,1.49a33.78,33.78,0,0,1-6,2.07,33.16,33.16,0,0,1-3.71.68c-.7.1-1.39.18-2.09.22s-1.67.07-2.51.07a35.21,35.21,0,0,1-8.49-1.07,34,34,0,0,1-9.67-4.11,34.39,34.39,0,0,1-10.9-10.74,27.46,27.46,0,0,1-1.9-3.39l.06,0,8.58-6.58Z" transform="translate(-416.76 -271.27)"/><path class="cls-3" d="M474,331.9l-10.47-8.11-.56-.44a17,17,0,0,0,2.71-2.16,15.55,15.55,0,0,0,4.12-7.29c.07-.25.12-.5.18-.75s0-.16-.12-.15H451.64c-.29,0-.25,0-.25-.24V299.82c0-.18,0-.22.22-.22h31.85c.16,0,.22,0,.25.2a29.06,29.06,0,0,1,.72,7.78,47.13,47.13,0,0,1-.51,5.17,33.87,33.87,0,0,1-6.79,15.75,30.43,30.43,0,0,1-3,3.24C474.09,331.8,474,331.88,474,331.9Z" transform="translate(-416.76 -271.27)"/><path class="cls-4" d="M431.94,312.33l-3,2.28-8.58,6.58-.06,0a28.18,28.18,0,0,1-1.24-2.81,34,34,0,0,1-1.78-6.42,35.17,35.17,0,0,1,1.53-18c.41-1.13.89-2.24,1.41-3.33l.08-.14,2.07,1.58q4.68,3.6,9.38,7.18l.18.13c-.14.54-.31,1.06-.44,1.6a20.65,20.65,0,0,0-.52,6.27,19.66,19.66,0,0,0,.95,4.92S431.94,312.3,431.94,312.33Z" transform="translate(-416.76 -271.27)"/></svg>