<svg id="Capa_1" data-name="Capa 1" xmlns="http://www.w3.org/2000/svg" viewBox="0 0 269 269"><defs><style>.cls-1{fill:#d9d9d9;}</style></defs><title>Cara de muertito</title><path class="cls-1" d="M907.26,1150.28h-105a82,82,0,0,0-82,82v105a82,82,0,0,0,82,82h105a82,82,0,0,0,82-82v-105A82,82,0,0,0,907.26,1150.28Zm55.23,188.22a54,54,0,0,1-54,54H801.07a54,54,0,0,1-54-54V1231.07a54,54,0,0,1,54-54H908.5a54,54,0,0,1,54,54Z" transform="translate(-720.28 -1150.28)"/><rect class="cls-1" x="67" y="180.02" width="135" height="27" rx="13.5"/><path class="cls-1" d="M826.84,1265.67l5.23-5.24A13.5,13.5,0,1,0,813,1241.34l-5.23,5.23-5.24-5.23a13.5,13.5,0,1,0-19.09,19.09l5.23,5.24-5.23,5.23a13.48,13.48,0,0,0,0,19.09h0a13.48,13.48,0,0,0,19.09,0l5.24-5.23L813,1290a13.48,13.48,0,0,0,19.09,0h0a13.48,13.48,0,0,0,0-19.09Z" transform="translate(-720.28 -1150.28)"/><path class="cls-1" d="M920.91,1265.67l5.24-5.24a13.5,13.5,0,1,0-19.09-19.09l-5.24,5.23-5.24-5.23a13.5,13.5,0,0,0-19.09,19.09l5.24,5.24-5.24,5.23a13.5,13.5,0,0,0,0,19.09h0a13.48,13.48,0,0,0,19.09,0l5.24-5.23,5.24,5.23a13.48,13.48,0,0,0,19.09,0h0a13.5,13.5,0,0,0,0-19.09Z" transform="translate(-720.28 -1150.28)"/></svg>