<svg id="Capa_1" data-name="Capa 1" xmlns="http://www.w3.org/2000/svg" viewBox="0 0 244.09 244.09"><defs><style>.cls-1{fill:gray;}</style></defs><title>Carita triste</title><path class="cls-1" d="M610.34,1096.23H515.1a74.42,74.42,0,0,0-74.42,74.43v95.24a74.42,74.42,0,0,0,74.42,74.42h95.24a74.42,74.42,0,0,0,74.43-74.42v-95.24A74.43,74.43,0,0,0,610.34,1096.23ZM660.45,1267a49,49,0,0,1-49,49H514a49,49,0,0,1-49-49v-97.48a49,49,0,0,1,49-49h97.48a49,49,0,0,1,49,49Z" transform="translate(-440.68 -1096.23)"/><path class="cls-1" d="M538.71,1289.14a49.08,49.08,0,0,1,47.14,0,11.93,11.93,0,0,0,14.14-2.11h0a12,12,0,0,0-3-19.17,74.56,74.56,0,0,0-69.45-.05,12,12,0,0,0-3,19.18h0A11.92,11.92,0,0,0,538.71,1289.14Z" transform="translate(-440.68 -1096.23)"/><path class="cls-1" d="M619.82,1189.16a8.87,8.87,0,0,1,7.71,13.33,25.86,25.86,0,0,1-44.32,0,8.87,8.87,0,0,1,7.71-13.33Z" transform="translate(-440.68 -1096.23)"/><path class="cls-1" d="M534.53,1189.61a8.87,8.87,0,0,1,7.71,13.33,25.87,25.87,0,0,1-44.33,0,8.87,8.87,0,0,1,7.71-13.33Z" transform="translate(-440.68 -1096.23)"/></svg>